# Blender 3.4.1
# www.blender.org
mtllib arbol2.mtl
o TREE
v -3.076958 32.541431 -16.659649
v -1.987923 40.614128 -7.878217
v 9.572279 32.532791 -13.159177
v 4.822872 40.609791 -7.052796
v 15.864484 32.493881 -0.194465
v 9.572279 32.532791 -13.159177
v 8.206661 40.588196 -0.077782
v 4.822872 40.609791 -7.052796
v 15.864484 32.493881 -0.194465
v 8.206661 40.588196 -0.077782
v 9.650067 32.467964 12.809141
v 4.861767 40.575222 6.918840
v -4.390716 32.476604 16.058962
v 9.650067 32.467964 12.809141
v -2.692338 40.579540 8.669077
v 4.861767 40.575222 6.918840
v -4.390716 32.476604 16.058962
v -2.692338 40.579540 8.669077
v -15.687302 32.515495 7.104667
v -8.772789 40.596832 3.850526
v -15.730516 32.550064 -7.307770
v -15.687302 32.515495 7.104667
v -8.794396 40.618446 -3.902372
v -8.772789 40.596832 3.850526
v -15.730516 32.550064 -7.307770
v -8.794396 40.618446 -3.902372
v -3.076958 32.541431 -16.659649
v -1.987923 40.614128 -7.878217
v -3.310323 4.779657 -3.686300
v -2.446009 -0.492658 -6.884261
v -13.427119 0.012966 -5.955125
v -5.298245 -0.501302 -0.220400
v -3.310323 4.779657 -3.686300
v -13.427119 0.012966 -5.955125
v -0.734667 40.748089 0.717387
v -6.866977 25.518871 -17.934521
v -16.841160 25.527525 -11.776276
v -0.734667 40.748089 0.717387
v 5.937837 25.510233 -18.081440
v -6.866977 25.518871 -17.934521
v -0.734667 40.748089 0.717387
v 14.887812 25.492954 -12.359688
v 5.937837 25.510233 -18.081440
v -0.488337 40.091217 -0.721696
v -7.601643 17.377039 -18.211103
v -16.404682 17.381359 -8.379523
v -0.488337 40.091217 -0.721696
v 3.219571 17.372717 -19.676104
v -7.601643 17.377039 -18.211103
v -0.488337 40.091217 -0.721696
v 11.352766 17.364071 -14.222285
v 3.219571 17.372717 -19.676104
v 0.030251 36.357372 0.025935
v -0.937781 0.004323 -8.522137
v -6.849689 0.017287 -4.343178
v 0.030251 36.357372 0.025935
v 4.978449 -0.012964 -4.282677
v -0.937781 0.004323 -8.522137
v 1.594660 3.193640 1.961993
v -1.011248 -0.518589 4.278355
v 8.811682 -0.060503 8.898112
v 5.626685 -0.518588 -0.678487
v 1.594660 3.193640 1.961993
v 8.811682 -0.060503 8.898112
v -0.859992 4.779657 -3.898055
v 2.450330 -0.492658 -3.764088
v -0.898887 0.012967 -14.265504
v -4.680261 -0.501301 -5.060560
v -0.859992 4.779657 -3.898055
v -0.898887 0.012967 -14.265504
v 2.415758 5.510003 -1.611945
v 4.230818 -0.518589 1.050141
v 11.625025 -0.047537 -3.167711
v 1.261899 -0.501301 -5.445179
v 2.415758 5.510003 -1.611945
v 11.625025 -0.047537 -3.167711
v 2.402793 -0.012966 5.017344
v 4.978449 -0.012964 -4.282677
v 0.030251 36.357372 0.025935
v -3.133139 -0.000001 3.993130
v 2.402793 -0.012966 5.017344
v 0.030251 36.357372 0.025935
v -6.849689 0.017287 -4.343178
v -3.133139 -0.000001 3.993130
v 0.030251 36.357372 0.025935
v -2.095962 5.592112 2.523798
v -5.903265 -0.505624 -0.566126
v -8.902435 -0.043217 9.857503
v 0.051859 -0.518589 4.507399
v -2.095962 5.592112 2.523798
v -8.902435 -0.043217 9.857503
v 10.510059 17.294924 13.682096
v 17.420252 17.320854 -0.181503
v -0.488337 40.091217 -0.721696
v -4.632725 17.303568 16.927593
v 10.510059 17.294924 13.682096
v -0.488337 40.091217 -0.721696
v -16.612118 17.342461 7.108986
v -4.632725 17.303568 16.927593
v -0.488337 40.091217 -0.721696
v -16.404682 17.381359 -8.379523
v -16.612118 17.342461 7.108986
v -0.488337 40.091217 -0.721696
v 17.420252 17.320854 -0.181503
v 11.352766 17.364071 -14.222285
v -0.488337 40.091217 -0.721696
v 19.122946 25.441088 4.736445
v 14.887812 25.492954 -12.359688
v -0.734667 40.748089 0.717387
v 8.396811 25.419472 18.703768
v 19.122946 25.441088 4.736445
v -0.734667 40.748089 0.717387
v -9.209267 25.441084 19.027876
v 8.396811 25.419472 18.703768
v -0.734667 40.748089 0.717387
v -20.445345 25.488617 5.462471
v -9.209267 25.441084 19.027876
v -0.734667 40.748089 0.717387
v -16.841160 25.527525 -11.776276
v -20.445345 25.488617 5.462471
v -0.734667 40.748089 0.717387
v -11.689848 39.836231 -5.164269
v -11.659597 39.810299 5.233428
v -0.821098 45.056690 0.017294
v -11.659597 39.810299 5.233428
v -3.513436 39.784386 11.694176
v -0.821098 45.056690 0.017294
v 6.620646 39.775730 9.351885
v 11.102116 39.793026 -0.030245
v -0.821098 45.056690 0.017294
v 11.102116 39.793026 -0.030245
v 6.564466 39.823277 -9.386443
v -0.821098 45.056690 0.017294
v 6.564466 39.823277 -9.386443
v -3.582582 38.971920 -11.672555
v -0.821098 45.056690 0.017294
v -3.582582 38.971920 -11.672555
v -11.689848 39.836231 -5.164269
v -0.821098 45.056690 0.017294
v -3.513436 39.784386 11.694176
v 6.620646 39.775730 9.351885
v -0.821098 45.056690 0.017294
vn -0.2150 0.7193 -0.6606
vn -0.0254 0.7069 -0.7069
vn 0.4374 0.7049 -0.5584
vn 0.4374 0.7049 -0.5585
vn 0.7264 0.6873 -0.0000
vn 0.4373 0.7049 -0.5584
vn 0.7263 0.6873 -0.0000
vn 0.4567 0.6831 0.5699
vn -0.1581 0.6834 0.7127
vn -0.6521 0.6872 0.3202
vn -0.1582 0.6834 0.7127
vn -0.6226 0.7123 -0.3240
vn -0.6226 0.7124 -0.3240
vn -0.3928 0.9069 -0.1524
vn -0.0490 0.5121 -0.8575
vn -0.3929 0.9069 -0.1524
vn -0.4339 0.6020 0.6703
vn -0.3929 0.9069 -0.1525
vn -0.3928 0.9069 -0.1525
vn 0.0039 0.9966 -0.0821
vn -0.1700 0.7893 -0.5900
vn -0.4921 0.8007 -0.3417
vn 0.0039 0.9966 -0.0820
vn 0.1660 0.7947 -0.5838
vn 0.4922 0.7989 -0.3457
vn -0.3651 0.6365 -0.6794
vn -0.7378 0.6128 -0.2830
vn 0.1739 0.6468 -0.7426
vn 0.6094 0.6153 -0.5000
vn 0.1739 0.6468 -0.7425
vn -0.1622 0.9848 0.0625
vn 0.0059 0.2287 -0.9735
vn -0.9443 0.2092 -0.2541
vn 0.9314 0.1659 -0.3241
vn 0.1505 0.9459 0.2873
vn -0.3454 0.6596 0.6675
vn 0.1504 0.9460 0.2873
vn 0.5737 0.7866 -0.2283
vn 0.0606 0.9064 -0.4180
vn 0.8252 0.5120 -0.2385
vn -0.7378 0.6129 -0.2830
vn 0.0606 0.9064 -0.4181
vn 0.5079 0.8594 -0.0586
vn 0.4143 0.4691 0.7799
vn 0.1636 0.5079 -0.8457
vn 0.5254 0.1484 0.8378
vn 0.9313 0.1660 -0.3241
vn -0.1622 0.9848 0.0626
vn -0.6134 0.1387 0.7775
vn 0.5253 0.1484 0.8379
vn -0.9443 0.2092 -0.2542
vn -0.2366 0.8643 0.4439
vn 0.4821 0.4197 0.7690
vn -0.2366 0.8643 0.4438
vn 0.4799 0.6223 0.6184
vn 0.7850 0.6190 0.0234
vn -0.1837 0.6233 0.7601
vn -0.7122 0.6186 0.3317
vn -0.7123 0.6186 0.3317
vn 0.5894 0.7982 0.1249
vn 0.2713 0.7963 0.5406
vn -0.2499 0.7965 0.5506
vn 0.2713 0.7963 0.5407
vn -0.5838 0.7986 0.1464
vn -0.2499 0.7965 0.5505
vn -0.4921 0.8006 -0.3417
vn -0.3420 0.9166 -0.2072
vn -0.3594 0.9161 0.1777
vn -0.0019 0.9999 -0.0156
vn -0.0859 0.9157 0.3925
vn -0.0020 0.9999 -0.0156
vn 0.2539 0.9140 0.3164
vn 0.4045 0.9145 0.0019
vn -0.0019 0.9999 -0.0157
vn 0.4045 0.9145 0.0020
vn 0.2186 0.9155 -0.3377
vn -0.0020 0.9999 -0.0157
vn -0.1015 0.8918 -0.4410
vn -0.1014 0.8918 -0.4410
vt 0.206845 0.281595
vt -0.036319 0.406595
vt 0.207333 0.781595
vt -0.036319 0.656595
vt 0.205380 0.747415
vt 0.205380 0.260599
vt -0.041690 0.667825
vt -0.041690 0.424661
vt 0.207333 0.419290
vt -0.036319 0.553079
vt 0.207333 0.919290
vt -0.036319 0.803079
vt 0.202451 0.685892
vt 0.202451 0.185892
vt -0.041202 0.620462
vt -0.041202 0.370462
vt 0.205869 0.345071
vt -0.038760 0.477884
vt 0.205869 0.807474
vt -0.038760 0.709329
vt 0.208798 0.781595
vt 0.208798 0.281595
vt -0.036319 0.656595
vt -0.036319 0.406595
vt 0.206845 0.281595
vt -0.036319 0.406595
vt 0.207333 0.781595
vt -0.036319 0.656595
vt 0.460263 0.281595
vt 0.460263 0.401224
vt 0.286711 0.281595
vt 0.287688 0.284525
vt 0.287688 0.405618
vt 0.462705 0.405618
vt -0.290225 0.519876
vt 0.209775 0.780618
vt 0.209286 0.280618
vt -0.290225 0.519876
vt 0.209775 0.780618
vt 0.209286 0.280618
vt -0.290225 0.519876
vt 0.209775 0.780618
vt 0.209286 0.280618
vt -0.466006 0.522318
vt 0.208798 0.781107
vt 0.208798 0.281107
vt -0.466006 0.522318
vt 0.208798 0.781107
vt 0.208798 0.281107
vt -0.466006 0.522318
vt 0.208798 0.781107
vt 0.208798 0.281107
vt 0.293271 0.675638
vt 0.383603 0.409525
vt 0.252744 0.409036
vt 0.297665 0.675638
vt 0.387997 0.409525
vt 0.257138 0.409036
vt 0.460263 0.281595
vt 0.460263 0.401224
vt 0.286711 0.281595
vt 0.287688 0.284525
vt 0.287688 0.405618
vt 0.462705 0.405618
vt 0.460263 0.281595
vt 0.460263 0.401224
vt 0.286711 0.281595
vt 0.287688 0.284525
vt 0.287688 0.405618
vt 0.462705 0.405618
vt 0.460263 0.281595
vt 0.460263 0.401224
vt 0.286711 0.281595
vt 0.287688 0.284525
vt 0.287688 0.405618
vt 0.462705 0.405618
vt 0.342587 0.407571
vt 0.457333 0.407571
vt 0.404599 0.675638
vt 0.287411 0.409036
vt 0.398251 0.408548
vt 0.350888 0.675638
vt 0.342587 0.409525
vt 0.254071 0.409036
vt 0.252255 0.675638
vt 0.460263 0.281595
vt 0.460263 0.401224
vt 0.286711 0.281595
vt 0.287688 0.284525
vt 0.287688 0.405618
vt 0.462705 0.405618
vt 0.207333 0.747415
vt 0.207333 0.260599
vt -0.471378 0.588235
vt 0.209286 0.919290
vt 0.209286 0.419290
vt -0.462100 0.686380
vt 0.204404 0.685892
vt 0.204404 0.185892
vt -0.466983 0.554544
vt 0.207822 0.807474
vt 0.207822 0.345071
vt -0.466006 0.611185
vt 0.200497 0.870462
vt 0.200497 0.370462
vt -0.462589 0.632669
vt 0.205869 0.919290
vt 0.205869 0.419290
vt -0.206241 0.693216
vt 0.200986 0.685892
vt 0.200986 0.185892
vt -0.206241 0.546732
vt 0.204892 0.807474
vt 0.204892 0.345071
vt -0.206241 0.589212
vt 0.207333 0.781595
vt 0.207333 0.281595
vt -0.290225 0.603372
vt 0.205380 0.302103
vt 0.205380 0.665872
vt -0.290225 0.497415
vt 0.212705 0.858743
vt 0.212705 0.576517
vt 0.455869 0.724954
vt 0.215146 0.918314
vt 0.215146 0.657571
vt 0.458310 0.804544
vt 0.212705 1.024271
vt 0.212705 0.742044
vt 0.454404 0.879739
vt 0.218076 0.871927
vt 0.218076 0.597025
vt 0.463681 0.781595
vt 0.217587 0.966165
vt 0.217587 0.683939
vt 0.454892 0.826028
vt 0.218076 0.548196
vt 0.218076 0.753763
vt 0.464658 0.654153
vt 0.217587 0.818216
vt 0.217587 0.535989
vt 0.459286 0.747903
s 0
usemtl Material
f 1/1/1 2/2/2 3/3/3
f 2/2/2 4/4/3 3/3/4
f 5/5/5 6/6/6 7/7/7
f 6/6/3 8/8/3 7/7/5
f 9/9/5 10/10/5 11/11/8
f 10/10/5 12/12/8 11/11/8
f 13/13/9 14/14/8 15/15/9
f 14/14/8 16/16/8 15/15/9
f 17/17/9 18/18/9 19/19/10
f 18/18/11 20/20/10 19/19/10
f 21/21/12 22/22/10 23/23/13
f 22/22/10 24/24/10 23/23/12
f 25/25/12 26/26/12 27/27/1
f 26/26/12 28/28/2 27/27/1
f 29/29/14 30/30/15 31/31/16
f 32/32/17 33/33/18 34/34/19
f 35/35/20 36/36/21 37/37/22
f 38/38/23 39/39/24 40/40/21
f 41/41/23 42/42/25 43/43/24
f 44/44/20 45/45/26 46/46/27
f 47/47/20 48/48/28 49/49/26
f 50/50/20 51/51/29 52/52/30
f 53/53/31 54/54/32 55/55/33
f 56/56/31 57/57/34 58/58/32
f 59/59/35 60/60/36 61/61/37
f 62/62/38 63/63/35 64/64/35
f 65/65/39 66/66/40 67/67/39
f 68/68/41 69/69/39 70/70/42
f 71/71/43 72/72/44 73/73/43
f 74/74/45 75/75/43 76/76/43
f 77/77/46 78/78/47 79/79/48
f 80/80/49 81/81/50 82/82/31
f 83/83/51 84/84/49 85/85/31
f 86/86/52 87/87/41 88/88/52
f 89/89/53 90/90/52 91/91/54
f 92/92/55 93/93/56 94/94/20
f 95/95/57 96/96/55 97/97/20
f 98/98/58 99/99/57 100/100/23
f 101/101/41 102/102/59 103/103/20
f 104/104/56 105/105/29 106/106/23
f 107/107/60 108/108/25 109/109/20
f 110/110/61 111/111/60 112/112/23
f 113/113/62 114/114/63 115/115/20
f 116/116/64 117/117/65 118/118/20
f 119/119/66 120/120/64 121/121/20
f 122/122/67 123/123/68 124/124/69
f 125/125/68 126/126/70 127/127/71
f 128/128/72 129/129/73 130/130/74
f 131/131/75 132/132/76 133/133/77
f 134/134/76 135/135/78 136/136/71
f 137/137/79 138/138/67 139/139/71
f 140/140/70 141/141/72 142/142/74
