# Blender 3.4.1
# www.blender.org
mtllib PUENTE.mtl
o Bridge_wall_LP
v 3.133933 -0.964221 -5.288442
v 3.962237 -0.940156 -5.283136
v 3.878407 -0.984189 -4.390940
v 3.892603 -0.578888 -4.918114
v 3.982228 -0.079523 -4.148680
v 3.874697 0.106191 -4.071408
v 3.142452 -1.166047 -3.258662
v 3.129699 -0.415627 -4.699708
v 3.193087 -0.153494 -4.210947
v 3.177608 0.272694 -3.789313
v 3.890263 0.855787 -2.945092
v 2.914768 -0.985196 -2.832330
v 3.971595 0.981217 -2.323097
v 3.978023 -1.105134 -2.298491
v 3.124699 0.908288 -2.707642
v 4.056016 0.447265 -1.953228
v 3.904453 -1.030771 -1.163583
v 3.987796 -0.967878 -1.254564
v 3.098821 -0.815316 -1.545873
v 3.117178 1.196781 -1.891428
v 3.948813 1.288272 -1.538424
v 3.168404 0.115905 -1.816620
v 3.117426 1.257342 -1.086801
v 3.965998 1.244348 -0.337999
v 3.936096 0.531292 0.454217
v 3.213667 -0.970213 -0.354602
v 3.978948 1.388638 0.397263
v 3.965728 -1.030701 0.355701
v 3.113738 1.097930 0.626361
v 3.094047 1.387881 -0.366516
v 3.181361 -1.045202 0.525741
v 3.941970 1.251956 1.415203
v 3.262299 1.337559 0.865188
v 4.040136 0.641869 1.067212
v 4.025699 -0.283443 1.563640
v 3.130937 1.136409 2.062326
v 4.006255 1.144338 2.353159
v 3.153646 -1.207274 1.659896
v 3.145528 0.646147 3.174628
v 3.208115 0.843288 3.064131
v 3.880388 0.660066 3.500769
v 4.026494 0.792645 2.715455
v 3.106625 -1.061611 3.194853
v 3.951947 -0.149815 3.213530
v 3.925135 -1.075118 2.273147
v 3.137970 0.332000 4.053808
v 3.987314 -1.061997 3.231408
v 3.950941 -0.042080 4.561043
v 4.074425 -1.036998 3.830241
v 3.139202 -1.045910 3.769068
v 3.155089 -0.199321 4.724624
v 3.970356 -1.036947 4.578373
v 3.111151 -1.025090 5.692213
v 4.008412 -1.163132 -3.216539
v 3.310609 -1.054161 -1.219326
v 3.976157 -1.021628 5.686251
v -2.998726 -0.785576 -3.084066
v 3.102817 -0.803141 -3.171702
v 3.399346 -1.035276 -4.235310
v -3.295254 -1.035276 -4.235317
v -3.302557 -0.928221 3.607418
v 3.399338 -0.921676 3.397042
v 3.399346 -0.935193 2.418537
v -3.295262 -0.912768 2.317019
v -3.295262 -0.962171 1.340918
v 3.399346 -0.946655 1.231697
v 3.399346 -1.023931 0.112851
v -3.295262 -1.023224 0.223749
v -3.295254 -0.901212 -1.013071
v 3.399346 -0.879648 -0.854541
v 3.399346 -0.782681 -1.883193
v -3.295262 -0.824658 -2.084875
v -3.295262 -1.035278 4.583905
v 3.399338 -1.035278 4.583905
v -3.150541 -0.964228 -5.302114
v -3.978846 -0.940164 -5.296808
v -3.895015 -0.984189 -4.404612
v -3.909212 -0.578888 -4.931786
v -3.998837 -0.079523 -4.162359
v -3.891305 0.106191 -4.085087
v -3.159061 -1.166047 -3.272334
v -3.146307 -0.415627 -4.713379
v -3.209696 -0.153494 -4.224626
v -3.194217 0.272694 -3.802993
v -3.906872 0.855787 -2.958764
v -3.202285 -0.287050 -3.126397
v -3.988204 0.981217 -2.336768
v -3.994632 -1.105134 -2.312170
v -3.141308 0.908288 -2.721314
v -4.072618 0.447265 -1.966908
v -3.921062 -1.030771 -1.177255
v -4.004405 -1.030883 -1.181604
v -3.150949 -0.937775 -1.587864
v -3.133787 1.196781 -1.905100
v -3.965422 1.288272 -1.552103
v -3.185013 0.115905 -1.830291
v -3.134035 1.257343 -1.100480
v -3.982607 1.244348 -0.351671
v -3.952705 0.531292 0.440545
v -3.126130 -1.023941 -0.340637
v -3.995557 1.388638 0.383591
v -3.982337 -1.030701 0.342022
v -3.130347 1.097930 0.612682
v -3.110648 1.387881 -0.380195
v -3.197936 -1.035499 0.484417
v -3.958572 1.251956 1.401524
v -3.278908 1.337559 0.851516
v -4.056745 0.641862 1.053540
v -4.042308 -0.283443 1.549960
v -3.147546 1.136402 2.048655
v -4.022864 1.144338 2.339487
v -3.170255 -1.018891 1.646224
v -3.162136 0.646147 3.160956
v -3.224724 0.843288 3.050459
v -3.896997 0.660066 3.487098
v -4.043102 0.792645 2.701783
v -3.123234 -1.061611 3.181181
v -3.968556 -0.149815 3.199851
v -3.941737 -1.075118 2.259475
v -3.154579 0.332000 4.040136
v -4.003923 -1.061997 3.217729
v -3.967550 -0.042080 4.547371
v -4.091034 -1.036998 3.816562
v -3.155810 -1.045910 3.755396
v -3.171698 -0.199321 4.710952
v -3.986957 -1.036947 4.564702
v -3.127760 -1.025090 5.678534
v -4.025022 -1.163132 -3.230218
v -3.291691 -1.048874 -1.204679
v -3.992766 -1.021628 5.672579
vn 0.0574 -0.9959 -0.0697
vn 0.0293 -0.9985 -0.0465
vn 0.0611 -0.9934 -0.0975
vn 0.9993 0.0115 0.0357
vn 0.9216 0.2879 -0.2602
vn 0.9969 -0.0557 -0.0549
vn -0.0054 0.7353 -0.6778
vn 0.3379 0.7594 -0.5560
vn -0.0257 -0.9990 -0.0379
vn -0.0691 0.7827 -0.6186
vn -0.1991 0.8150 -0.5441
vn -0.0744 0.7944 -0.6028
vn -0.0195 0.9076 -0.4194
vn 0.9187 0.3428 -0.1962
vn -0.8844 -0.4667 -0.0013
vn -0.9911 0.0467 -0.1244
vn -0.9565 -0.2125 -0.1999
vn 0.9933 0.0924 -0.0694
vn 0.9994 -0.0325 -0.0082
vn -0.9986 0.0534 0.0065
vn 0.9967 0.0288 -0.0753
vn 0.3176 -0.9477 0.0326
vn 0.9098 -0.4126 0.0444
vn -0.9906 0.0587 0.1235
vn 0.1074 0.9580 -0.2659
vn -0.0012 0.9729 -0.2314
vn -0.0252 0.9840 -0.1763
vn -0.9972 0.0319 0.0671
vn -0.9989 -0.0470 0.0054
vn -0.0316 0.9962 -0.0806
vn -0.9987 -0.0508 -0.0026
vn 1.0000 0.0004 0.0066
vn 0.9982 -0.0275 -0.0536
vn -0.9999 -0.0139 0.0009
vn -0.0064 0.9994 0.0335
vn 0.9996 -0.0078 -0.0273
vn 0.9916 0.1286 -0.0138
vn 1.0000 -0.0041 -0.0087
vn -0.9810 0.1888 0.0452
vn -0.9980 -0.0625 0.0016
vn 0.0474 -0.9977 -0.0485
vn 0.0704 -0.9971 -0.0284
vn -0.0133 0.9898 0.1419
vn -0.0100 0.9934 0.1139
vn 0.9980 0.0082 -0.0634
vn 0.9986 -0.0529 0.0005
vn -0.9990 0.0428 0.0123
vn -0.8656 0.4993 0.0375
vn 0.9865 0.1637 -0.0087
vn 0.9933 0.1127 0.0245
vn -0.0575 0.9679 0.2446
vn -0.0604 0.9783 0.1984
vn -0.9998 0.0012 -0.0213
vn -0.9994 -0.0218 -0.0252
vn -0.9804 0.1853 0.0674
vn -0.0452 0.9225 0.3833
vn -0.0157 0.8817 0.4715
vn 0.8718 0.4299 0.2348
vn 0.9862 0.1210 0.1131
vn -0.9997 0.0229 0.0103
vn 0.9999 -0.0122 -0.0120
vn 0.9985 -0.0524 0.0145
vn 0.0703 0.8136 0.5771
vn 0.9938 0.0365 -0.1052
vn -0.9998 0.0162 0.0091
vn -0.9076 0.3837 0.1705
vn 0.9972 0.0619 0.0413
vn 0.9976 0.0689 -0.0091
vn -0.9996 0.0165 0.0219
vn 0.0082 -0.9998 0.0201
vn 0.0030 -0.9998 0.0201
vn 0.0229 -0.9985 0.0506
vn -0.9999 0.0173 0.0013
vn 0.0036 -1.0000 0.0087
vn 0.9976 0.0206 0.0659
vn 0.0025 -0.9999 0.0126
vn -0.9993 0.0356 -0.0150
vn 0.9909 0.0923 0.0977
vn -0.0331 0.7193 -0.6939
vn -0.0169 0.7314 -0.6817
vn 0.9998 0.0181 -0.0071
vn 0.0081 -0.9991 -0.0419
vn -0.9999 -0.0110 0.0031
vn -0.9992 0.0311 0.0250
vn -0.3794 -0.9236 0.0540
vn 0.0281 -0.9975 0.0645
vn -0.9978 0.0642 0.0152
vn -0.0629 0.9124 -0.4044
vn -0.7939 -0.6036 0.0734
vn -0.2070 -0.9770 -0.0512
vn 0.1022 0.9876 -0.1194
vn 0.1511 -0.9884 -0.0167
vn 0.1001 -0.9945 -0.0294
vn -0.0030 -0.9981 0.0621
vn -0.0065 0.7844 0.6202
vn -0.0332 0.8020 0.5965
vn 0.0041 -0.9999 0.0138
vn 0.9998 0.0194 -0.0055
vn -0.0043 0.7564 0.6541
vn 0.0015 0.7543 0.6566
vn -0.0010 0.9945 -0.1050
vn -0.0001 0.9771 -0.2126
vn -0.0011 0.9949 -0.1007
vn 0.0012 0.9987 0.0502
vn 0.0008 0.9999 -0.0135
vn 0.0008 0.9999 -0.0138
vn 0.0012 0.9986 0.0522
vn -0.0008 0.9990 -0.0451
vn -0.0021 0.9995 0.0302
vn -0.0021 0.9996 0.0283
vn -0.0008 0.9990 -0.0448
vn -0.0044 0.9948 0.1014
vn -0.0047 0.9988 0.0489
vn -0.0047 0.9988 0.0482
vn -0.0045 0.9949 0.1009
vn 0.0011 0.9948 0.1015
vn -0.0574 -0.9959 -0.0697
vn -0.0611 -0.9934 -0.0975
vn -0.0293 -0.9985 -0.0465
vn -0.9993 0.0115 0.0357
vn -0.9969 -0.0557 -0.0549
vn -0.9216 0.2879 -0.2602
vn -0.3379 0.7594 -0.5560
vn 0.0054 0.7353 -0.6778
vn 0.0039 -0.9992 -0.0398
vn 0.1991 0.8150 -0.5441
vn 0.0691 0.7827 -0.6186
vn 0.0744 0.7945 -0.6028
vn 0.0195 0.9076 -0.4194
vn -0.9187 0.3428 -0.1962
vn 0.9999 0.0117 0.0064
vn 0.9991 0.0426 0.0052
vn 0.9998 -0.0075 -0.0192
vn -0.9933 0.0924 -0.0694
vn -0.9994 -0.0332 -0.0106
vn 0.9988 -0.0479 -0.0019
vn -0.9967 0.0294 -0.0759
vn -0.0096 -0.9993 0.0361
vn -0.7093 -0.7039 0.0389
vn 0.9993 0.0316 -0.0180
vn -0.1074 0.9580 -0.2659
vn 0.0012 0.9729 -0.2314
vn 0.0252 0.9840 -0.1764
vn 0.9997 -0.0129 -0.0184
vn 0.9989 -0.0470 0.0054
vn 0.0316 0.9962 -0.0806
vn 0.9996 -0.0253 -0.0142
vn -1.0000 0.0004 0.0066
vn -0.9982 -0.0274 -0.0533
vn 0.9998 -0.0104 0.0191
vn 0.0064 0.9994 0.0335
vn -0.9996 -0.0078 -0.0273
vn -0.9916 0.1285 -0.0138
vn -1.0000 -0.0039 -0.0084
vn 0.9788 0.1975 0.0537
vn 0.9980 -0.0625 0.0016
vn 0.0179 -0.9998 -0.0072
vn 0.0099 -0.9999 -0.0043
vn 0.0133 0.9898 0.1419
vn 0.0101 0.9934 0.1139
vn -0.9980 0.0082 -0.0634
vn -0.9986 -0.0529 0.0005
vn 0.9990 0.0423 0.0124
vn 0.8656 0.4993 0.0375
vn -0.9865 0.1637 -0.0087
vn -0.9933 0.1127 0.0245
vn 0.0575 0.9679 0.2446
vn 0.0604 0.9783 0.1984
vn 0.9998 0.0006 -0.0199
vn 0.9988 -0.0268 0.0400
vn 0.9803 0.1855 0.0673
vn 0.0452 0.9225 0.3833
vn 0.0157 0.8817 0.4715
vn -0.8718 0.4299 0.2348
vn -0.9862 0.1210 0.1131
vn 0.9996 0.0229 0.0133
vn -0.9999 -0.0122 -0.0120
vn -0.9985 -0.0524 0.0145
vn -0.0703 0.8136 0.5771
vn -0.9938 0.0365 -0.1053
vn 0.9998 0.0162 0.0091
vn 0.9076 0.3837 0.1705
vn -0.9972 0.0619 0.0413
vn -0.9976 0.0689 -0.0091
vn 0.9996 0.0165 0.0219
vn -0.0082 -0.9998 0.0201
vn 0.0092 -0.9999 0.0133
vn -0.0030 -0.9998 0.0201
vn 0.9999 0.0173 0.0013
vn -0.0036 -1.0000 0.0087
vn -0.9976 0.0206 0.0659
vn -0.0025 -0.9999 0.0126
vn 0.9993 0.0356 -0.0150
vn -0.9909 0.0923 0.0977
vn 0.0331 0.7193 -0.6939
vn 0.0169 0.7314 -0.6817
vn -0.9998 0.0181 -0.0071
vn -0.0075 -0.9991 -0.0411
vn 0.9999 -0.0110 0.0031
vn 0.9992 0.0311 0.0250
vn 0.2470 -0.9690 0.0043
vn -0.0214 -0.9977 0.0642
vn 0.9978 0.0642 0.0152
vn 0.0629 0.9124 -0.4044
vn 0.7206 -0.6904 0.0645
vn 0.0428 -0.9991 -0.0073
vn -0.1022 0.9876 -0.1194
vn 0.0715 -0.9974 0.0111
vn 0.0326 -0.9994 -0.0089
vn 0.0004 -1.0000 -0.0012
vn 0.0065 0.7844 0.6202
vn 0.0332 0.8020 0.5965
vn -0.0041 -0.9999 0.0138
vn -0.9998 0.0194 -0.0055
vn 0.0043 0.7564 0.6541
vn -0.0015 0.7543 0.6566
vt 1.855181 0.632084
vt 0.998937 0.966532
vt 0.584659 0.918110
vt 1.798347 0.631534
vt 0.745280 0.009961
vt 0.985991 0.900421
vt 0.742045 0.084189
vt 1.804384 0.570293
vt 0.775501 0.040436
vt 0.945772 0.912976
vt 0.817471 0.104183
vt 0.871654 0.915778
vt 0.860032 0.929646
vt 1.855181 0.496675
vt 1.848012 0.378078
vt 0.585210 0.755260
vt 0.934507 0.977867
vt 0.630797 0.870387
vt 0.889467 0.981291
vt 0.653462 0.830305
vt 0.689111 0.796007
vt 0.841323 0.988463
vt 0.760077 0.941682
vt 0.643836 0.739480
vt 0.713334 0.929378
vt 0.906748 0.254521
vt 1.880889 0.422545
vt 0.769717 0.249982
vt 0.743024 0.707498
vt 0.741983 0.999655
vt 0.862749 0.286158
vt 1.876849 0.471271
vt 0.800442 0.328875
vt 1.882263 0.467785
vt 0.641352 0.612520
vt 1.839211 0.460047
vt 0.767730 0.640428
vt 0.670945 0.996803
vt 0.644935 0.927841
vt 0.933427 0.319322
vt 0.678548 0.633125
vt 0.605522 0.993796
vt 0.773542 0.574055
vt 0.930810 0.419243
vt 0.872283 0.485622
vt 1.834101 0.518503
vt 0.644794 0.509336
vt 0.487871 0.918488
vt 0.943457 0.480340
vt 0.802417 0.472056
vt 1.873656 0.548695
vt 0.763096 0.430947
vt 0.546078 0.993414
vt 0.785661 0.514565
vt 0.644502 0.440974
vt 1.835414 0.556150
vt 0.933607 0.565202
vt 0.404461 0.917356
vt 0.786344 0.410604
vt 0.446843 0.974700
vt 0.882331 0.536771
vt 0.806844 0.577838
vt 0.347905 0.980457
vt 0.765808 0.311438
vt 0.328197 0.908229
vt 0.924107 0.643180
vt 0.641068 0.344566
vt 1.833831 0.607710
vt 0.725519 0.218710
vt 0.263483 0.970967
vt 0.742966 0.227503
vt 0.885988 0.739880
vt 0.226820 0.915195
vt 0.894850 0.673231
vt 0.604070 0.205942
vt 1.827432 0.684165
vt 0.816271 0.714573
vt 0.788543 0.629679
vt 1.866644 0.633827
vt 0.698950 0.145591
vt 0.172937 0.973949
vt 0.761048 0.727215
vt 1.866340 0.687932
vt 0.825322 0.826542
vt 0.123850 0.906017
vt 1.868859 0.710928
vt 1.797194 0.750444
vt 0.742045 0.766110
vt 1.861396 0.753708
vt 0.584659 0.169481
vt 1.827559 0.706235
vt 0.654727 0.090010
vt 0.103574 0.970056
vt 1.803586 0.699033
vt 0.742813 0.828751
vt 0.585924 0.009870
vt 1.861396 0.621783
vt 0.000265 0.970585
vt 1.795800 0.493530
vt 0.742646 0.177448
vt 1.884479 0.382216
vt 1.846393 0.468873
vt 1.802079 0.623054
vt 0.744932 0.920619
vt 0.002872 0.900421
vt 0.005380 0.678754
vt 0.572048 0.694196
vt 0.572063 0.787006
vt 0.005398 0.787096
vt 0.004661 0.107103
vt 0.571958 0.124476
vt 0.571973 0.209916
vt 0.005309 0.218812
vt 0.005324 0.303077
vt 0.571991 0.312302
vt 0.572005 0.407137
vt 0.005338 0.397852
vt 0.005354 0.502756
vt 0.572018 0.489163
vt 0.572029 0.577815
vt 0.005366 0.595326
vt 0.005398 0.016094
vt 0.572063 0.016838
vt 1.760133 0.632084
vt 1.998937 0.966532
vt 1.584659 0.918110
vt 1.703299 0.631534
vt 1.745280 0.009961
vt 1.985991 0.900421
vt 1.742045 0.084189
vt 1.709336 0.570293
vt 1.775501 0.040436
vt 1.945772 0.912976
vt 1.817471 0.104183
vt 1.871654 0.915778
vt 1.860032 0.929646
vt 1.760133 0.496675
vt 1.846714 0.378078
vt 1.585210 0.755260
vt 1.934507 0.977867
vt 1.630797 0.870387
vt 1.889467 0.981291
vt 1.653462 0.830305
vt 1.689111 0.796007
vt 1.841323 0.988463
vt 1.760077 0.941682
vt 1.643836 0.739480
vt 1.713334 0.929378
vt 1.906748 0.254521
vt 1.879591 0.422545
vt 1.769717 0.249982
vt 1.743024 0.707498
vt 1.741983 0.999655
vt 1.862749 0.286158
vt 1.875550 0.471271
vt 1.800442 0.328875
vt 1.880965 0.467785
vt 1.641352 0.612520
vt 1.837913 0.460047
vt 1.767730 0.640428
vt 1.670945 0.996803
vt 1.644935 0.927841
vt 1.933427 0.319322
vt 1.678548 0.633125
vt 1.605522 0.993796
vt 1.773542 0.574055
vt 1.930810 0.419243
vt 1.872283 0.485622
vt 1.832803 0.518503
vt 1.644794 0.509336
vt 1.487871 0.918488
vt 1.943457 0.480340
vt 1.802417 0.472056
vt 1.872357 0.548695
vt 1.763096 0.430947
vt 1.546078 0.993414
vt 1.785661 0.514565
vt 1.644502 0.440974
vt 1.834115 0.556150
vt 1.933607 0.565202
vt 1.404461 0.917356
vt 1.786344 0.410604
vt 1.446843 0.974700
vt 1.882331 0.536771
vt 1.806844 0.577838
vt 1.347905 0.980457
vt 1.765808 0.311438
vt 1.328197 0.908229
vt 1.924107 0.643180
vt 1.641068 0.344566
vt 1.832532 0.607710
vt 1.725519 0.218710
vt 1.263483 0.970967
vt 1.742966 0.227503
vt 1.885988 0.739880
vt 1.226820 0.915195
vt 1.894850 0.673231
vt 1.604070 0.205942
vt 1.826134 0.684165
vt 1.816271 0.714573
vt 1.788543 0.629679
vt 1.865346 0.633827
vt 1.698950 0.145591
vt 1.172937 0.973949
vt 1.761048 0.727215
vt 1.865042 0.687932
vt 1.825322 0.826542
vt 1.123850 0.906017
vt 1.867560 0.710928
vt 1.644041 0.755815
vt 1.742045 0.766110
vt 1.708242 0.759079
vt 1.584659 0.169481
vt 1.826261 0.706235
vt 1.654727 0.090010
vt 1.103574 0.970056
vt 1.650432 0.704404
vt 1.742813 0.828751
vt 1.585924 0.009870
vt 1.708242 0.627154
vt 1.000265 0.970585
vt 1.700752 0.493530
vt 1.742646 0.177448
vt 1.883181 0.382216
vt 1.845095 0.468873
vt 1.648925 0.628425
vt 1.744932 0.920619
vt 1.002872 0.900421
s 1
usemtl Material.002
f 1/1/1 2/4/2 3/8/3
f 4/9/4 5/11/5 3/7/6
f 5/12/5 4/10/7 6/13/8
f 7/14/9 1/1/1 3/8/3
f 6/13/8 8/17/10 9/19/11
f 10/22/12 6/13/8 9/19/11
f 11/23/13 6/13/8 10/22/12
f 11/23/14 5/12/5 6/13/8
f 12/24/15 10/21/16 7/16/17
f 13/26/18 14/28/19 5/11/5
f 15/29/20 10/21/16 12/24/15
f 13/26/18 16/31/21 14/28/19
f 17/32/22 14/27/19 18/34/23
f 12/24/15 7/16/17 19/35/24
f 13/25/25 11/23/13 20/38/26
f 20/38/26 21/39/27 13/25/25
f 15/29/20 12/24/15 22/41/28
f 20/37/29 15/29/20 22/41/28
f 20/38/26 23/42/30 21/39/27
f 22/41/28 23/43/31 20/37/29
f 24/44/32 25/45/33 16/31/21
f 25/45/33 18/33/23 16/31/21
f 22/41/28 19/35/24 26/47/34
f 27/48/35 21/39/27 23/42/30
f 27/49/36 24/44/32 21/40/37
f 28/50/38 18/33/23 25/45/33
f 29/52/39 30/54/40 23/43/31
f 31/56/41 17/32/22 28/51/42
f 32/58/43 27/48/35 33/60/44
f 34/61/45 35/62/46 25/45/33
f 36/64/47 33/59/48 29/52/39
f 32/57/49 37/66/50 34/61/45
f 37/65/51 32/58/43 36/63/52
f 38/67/53 36/64/47 31/55/54
f 38/67/53 39/69/55 36/64/47
f 40/70/56 37/65/51 36/63/52
f 41/73/57 37/65/51 40/70/56
f 41/72/58 42/74/59 37/66/50
f 43/75/60 39/69/55 38/67/53
f 44/77/61 45/78/62 42/74/59
f 46/81/63 41/73/57 40/70/56
f 47/82/64 45/78/62 44/77/61
f 46/80/65 40/71/66 39/69/55
f 48/84/67 44/77/61 42/74/59
f 42/74/59 41/72/58 48/84/67
f 49/88/68 47/82/64 44/77/61
f 50/90/69 46/80/65 39/69/55
f 49/86/70 50/91/71 47/83/72
f 51/92/73 46/80/65 50/90/69
f 49/87/70 52/94/74 50/89/71
f 52/95/75 49/88/68 48/84/67
f 52/94/74 53/97/76 50/89/71
f 51/92/73 50/90/69 53/96/77
f 4/9/4 3/7/6 2/5/78
f 2/6/79 8/17/10 4/10/7
f 8/17/10 2/6/79 1/2/80
f 5/11/5 54/100/81 3/7/6
f 8/17/10 6/13/8 4/10/7
f 54/99/82 7/14/9 3/8/3
f 5/11/5 14/28/19 54/100/81
f 1/3/83 7/16/17 8/18/84
f 11/23/14 13/25/18 5/12/5
f 55/102/85 54/101/82 14/27/86
f 9/20/87 7/16/17 10/21/16
f 11/23/13 10/22/12 15/30/88
f 55/102/85 7/15/9 54/101/82
f 17/32/22 55/102/85 14/27/86
f 7/15/9 55/102/85 19/36/89
f 11/23/13 15/30/88 20/38/26
f 16/31/21 18/33/23 14/28/19
f 19/35/24 22/41/28 12/24/15
f 13/26/18 21/40/37 16/31/21
f 24/44/32 16/31/21 21/40/37
f 17/32/22 26/46/90 55/102/85
f 26/46/90 19/36/89 55/102/85
f 27/48/35 23/42/30 30/53/91
f 28/51/42 17/32/22 18/34/23
f 22/41/28 26/47/34 23/43/31
f 31/56/41 26/46/90 17/32/22
f 30/53/91 33/60/44 27/48/35
f 26/47/34 29/52/39 23/43/31
f 29/52/39 33/59/48 30/54/40
f 27/49/36 25/45/33 24/44/32
f 26/47/34 31/55/54 29/52/39
f 27/49/36 34/61/45 25/45/33
f 27/49/36 32/57/49 34/61/45
f 36/64/47 29/52/39 31/55/54
f 25/45/33 35/62/46 28/50/38
f 33/60/44 36/63/52 32/58/43
f 34/61/45 37/66/50 42/74/59
f 42/74/59 35/62/46 34/61/45
f 28/50/38 35/62/46 45/78/62
f 42/74/59 45/78/62 35/62/46
f 39/69/55 40/71/66 36/64/47
f 45/79/92 47/83/72 38/68/93
f 38/68/93 47/83/72 43/76/94
f 43/75/60 50/90/69 39/69/55
f 51/93/95 41/73/57 46/81/63
f 47/83/72 50/91/71 43/76/94
f 51/93/95 48/85/96 41/73/57
f 48/84/67 49/88/68 44/77/61
f 56/103/97 53/97/76 52/94/74
f 52/95/75 48/84/67 56/104/98
f 28/51/42 45/79/92 38/68/93 31/56/41
f 53/98/99 48/85/96 51/93/95
f 53/98/99 56/105/100 48/85/96
f 9/20/87 8/18/84 7/16/17
f 58/107/101 59/108/102 60/109/102 57/106/103
f 62/111/104 63/112/105 64/113/106 61/110/107
f 66/115/108 67/116/109 68/117/110 65/114/111
f 70/119/112 71/120/113 72/121/114 69/118/115
f 74/123/116 62/111/104 61/110/107 73/122/116
f 63/112/105 66/115/108 65/114/111 64/113/106
f 67/116/109 70/119/112 69/118/115 68/117/110
f 71/120/113 58/107/101 57/106/103 72/121/114
f 75/124/117 77/131/118 76/127/119
f 78/132/120 77/130/121 79/134/122
f 79/135/122 80/136/123 78/133/124
f 81/137/125 77/131/118 75/124/117
f 80/136/123 83/142/126 82/140/127
f 84/145/128 83/142/126 80/136/123
f 85/146/129 84/145/128 80/136/123
f 85/146/130 80/136/123 79/135/122
f 86/147/131 81/139/132 84/144/133
f 87/149/134 79/134/122 88/151/135
f 89/152/136 86/147/131 84/144/133
f 87/149/134 88/151/135 90/154/137
f 91/155/138 92/157/139 88/150/135
f 86/147/131 93/158/140 81/139/132
f 87/148/141 94/161/142 85/146/129
f 94/161/142 87/148/141 95/162/143
f 89/152/136 96/164/144 86/147/131
f 94/160/145 96/164/144 89/152/136
f 94/161/142 95/162/143 97/165/146
f 96/164/144 94/160/145 97/166/147
f 98/167/148 90/154/137 99/168/149
f 99/168/149 90/154/137 92/156/139
f 96/164/144 100/170/150 93/158/140
f 101/171/151 97/165/146 95/162/143
f 101/172/152 95/163/153 98/167/148
f 102/173/154 99/168/149 92/156/139
f 103/175/155 97/166/147 104/177/156
f 105/179/157 102/174/158 91/155/138
f 106/181/159 107/183/160 101/171/151
f 108/184/161 99/168/149 109/185/162
f 110/187/163 103/175/155 107/182/164
f 106/180/165 108/184/161 111/189/166
f 111/188/167 110/186/168 106/181/159
f 112/190/169 105/178/170 110/187/163
f 112/190/169 110/187/163 113/192/171
f 114/193/172 110/186/168 111/188/167
f 115/196/173 114/193/172 111/188/167
f 115/195/174 111/189/166 116/197/175
f 117/198/176 112/190/169 113/192/171
f 118/200/177 116/197/175 119/201/178
f 120/204/179 114/193/172 115/196/173
f 121/205/180 118/200/177 119/201/178
f 120/203/181 113/192/171 114/194/182
f 122/207/183 116/197/175 118/200/177
f 116/197/175 122/207/183 115/195/174
f 123/211/184 118/200/177 121/205/180
f 124/213/185 113/192/171 120/203/181
f 123/209/186 121/206/187 124/214/188
f 125/215/189 124/213/185 120/203/181
f 123/210/186 124/212/188 126/217/190
f 126/218/191 122/207/183 123/211/184
f 126/217/190 124/212/188 127/220/192
f 125/215/189 127/219/193 124/213/185
f 78/132/120 76/128/194 77/130/121
f 76/129/195 78/133/124 82/140/127
f 82/140/127 75/125/196 76/129/195
f 79/134/122 77/130/121 128/223/197
f 82/140/127 78/133/124 80/136/123
f 128/222/198 77/131/118 81/137/125
f 79/134/122 128/223/197 88/151/135
f 75/126/199 82/141/200 81/139/132
f 85/146/130 79/135/122 87/148/134
f 129/225/201 88/150/202 128/224/198
f 83/143/203 84/144/133 81/139/132
f 85/146/129 89/153/204 84/145/128
f 129/225/201 128/224/198 81/138/125
f 91/155/138 88/150/202 129/225/201
f 81/138/125 93/159/205 129/225/201
f 85/146/129 94/161/142 89/153/204
f 90/154/137 88/151/135 92/156/139
f 93/158/140 86/147/131 96/164/144
f 87/149/134 90/154/137 95/163/153
f 98/167/148 95/163/153 90/154/137
f 91/155/138 129/225/201 100/169/206
f 100/169/206 129/225/201 93/159/205
f 101/171/151 104/176/207 97/165/146
f 102/174/158 92/157/139 91/155/138
f 96/164/144 97/166/147 100/170/150
f 105/179/157 91/155/138 100/169/206
f 104/176/207 101/171/151 107/183/160
f 100/170/150 97/166/147 103/175/155
f 103/175/155 104/177/156 107/182/164
f 101/172/152 98/167/148 99/168/149
f 100/170/150 103/175/155 105/178/170
f 101/172/152 99/168/149 108/184/161
f 101/172/152 108/184/161 106/180/165
f 110/187/163 105/178/170 103/175/155
f 99/168/149 102/173/154 109/185/162
f 107/183/160 106/181/159 110/186/168
f 108/184/161 116/197/175 111/189/166
f 116/197/175 108/184/161 109/185/162
f 102/173/154 119/201/178 109/185/162
f 116/197/175 109/185/162 119/201/178
f 113/192/171 110/187/163 114/194/182
f 119/202/208 112/191/209 121/206/187
f 112/191/209 117/199/210 121/206/187
f 117/198/176 113/192/171 124/213/185
f 125/216/211 120/204/179 115/196/173
f 121/206/187 117/199/210 124/214/188
f 125/216/211 115/196/173 122/208/212
f 122/207/183 118/200/177 123/211/184
f 130/226/213 126/217/190 127/220/192
f 126/218/191 130/227/214 122/207/183
f 102/174/158 105/179/157 112/191/209 119/202/208
f 127/221/215 125/216/211 122/208/212
f 127/221/215 122/208/212 130/228/216
f 83/143/203 81/139/132 82/141/200
