# Blender 3.4.1
# www.blender.org
mtllib piedra.mtl
o rockmodel2
v -2.965755 2.820381 2.133724
v -2.831595 2.927968 1.884254
v -2.694196 -0.289024 1.905269
v -3.527193 0.237704 3.233227
v -2.887577 2.926941 1.706187
v -3.015929 -0.250555 1.450893
v -3.391798 2.101685 1.027847
v -3.469135 0.264977 0.847906
v -3.874853 1.947503 0.199784
v -3.660805 0.564269 0.449239
v -3.734509 2.176829 0.169091
v -3.409487 2.318074 -0.304419
v -3.937229 1.541485 -0.039142
v -3.758264 2.228899 -0.257795
v -3.966280 1.870252 -0.133158
v -3.837124 2.240210 -0.354625
v -4.047364 1.905607 -0.246120
v -3.780824 2.272220 -0.512319
v -4.090734 1.806925 -0.359973
v -4.237331 2.240507 -0.991938
v -4.361205 2.057547 -0.916708
v -3.643121 1.539766 3.302401
v -2.983137 2.746210 2.609736
v -3.659393 0.487335 3.452581
v -3.713801 1.342354 3.453038
v -0.723088 -0.442429 3.593977
v -2.316190 0.430646 4.796479
v -2.530055 0.555703 4.652513
v -0.672162 -0.406236 2.847843
v -2.341416 0.942637 5.017152
v -2.625178 0.749067 4.672588
v -1.858726 0.847400 5.360595
v -2.072829 1.103831 5.312647
v -1.416824 1.166211 5.755899
v -1.591142 1.632047 5.761760
v -0.793015 1.204859 5.737535
v -0.844393 1.610096 5.725173
v -2.671319 1.563814 4.644594
v -3.245079 0.227642 3.578875
v -3.385634 0.476091 3.761641
v -2.890998 0.393578 4.180225
v -2.971797 0.554952 4.260352
v -3.244153 1.472148 3.986730
v -2.615936 2.771521 3.241775
v -2.105669 2.789059 3.882004
v -1.705518 2.790588 4.381406
v -1.130840 2.951368 4.133067
v -4.040694 0.853527 -0.377845
v -4.388103 1.038061 -1.169530
v -4.325583 2.285888 -1.346581
v -4.584915 2.036335 -1.450673
v -4.719347 1.243658 -2.144239
v -4.264828 2.367004 -1.799694
v -4.443130 2.199393 -1.880849
v -4.073401 2.440632 -2.173848
v -4.347293 2.176790 -2.309392
v -4.045669 2.296724 -2.569801
v -4.144590 1.942156 -2.898421
v -4.308274 1.842148 -2.731398
v -4.520279 1.586635 -2.443740
v -3.623746 0.393938 -2.830336
v -3.224490 0.128353 -1.819872
v -2.656067 -0.350051 0.448044
v -2.628504 -0.230569 -0.124039
v -2.699353 -0.436309 1.018202
v -2.915841 -0.090973 -0.976646
v -1.954005 -0.505224 1.972874
v -1.432512 -0.497412 2.460198
v 0.817328 0.640459 4.836175
v 0.456670 -0.298352 3.792382
v 0.956594 0.283762 4.452551
v 1.682642 0.162806 3.574048
v 1.815541 -0.016211 3.152696
v 2.623733 0.220898 1.694216
v 2.912801 0.376071 2.276360
v 2.483987 0.140933 2.535629
v 3.249144 0.855599 2.507505
v 2.889719 1.460710 3.519936
v 0.500071 0.282137 -1.669620
v 0.610717 0.544314 -1.789994
v 1.469599 0.349978 -1.134150
v -0.234554 0.339013 -2.280466
v -0.830836 0.428798 -2.882017
v -0.129558 0.538180 -2.370515
v -0.997672 0.596272 -3.008371
v -1.079316 0.399079 -2.878436
v -1.101269 0.451614 -3.051285
v -3.310421 2.616796 -2.440079
v -3.292496 2.504415 -2.718419
v -2.606317 2.786251 -2.499250
v -2.646780 2.649913 -2.837862
v -1.489815 2.965873 -2.143202
v -1.986470 2.763166 -3.000339
v -2.654394 2.475272 -0.263353
v -2.919128 2.590446 -1.576331
v -3.545367 2.443339 -1.476351
v -2.228371 3.239359 0.670990
v -1.495065 3.182791 -1.576186
v -0.323217 3.728437 0.805852
v -1.343871 3.189377 2.628914
v 0.058306 3.771731 1.096549
v 1.018039 3.620871 3.233338
v 1.083976 3.928848 1.615486
v 1.990704 3.580193 3.176450
v 1.725140 3.881298 1.716661
v 1.706326 2.861608 4.118833
v 2.434140 3.189676 3.635410
v 3.349971 2.390034 2.840813
v 3.680631 2.062904 1.937935
v 2.366307 3.317200 0.795485
v 3.235400 2.473612 0.410591
v 2.808990 2.903645 0.032035
v 1.402195 3.334067 0.535754
v 2.048732 2.809905 -0.613097
v 1.011933 3.262865 0.051330
v 1.468822 2.234949 -1.082977
v 1.451566 2.856511 -0.845014
v 1.372862 2.753865 -1.116699
v 1.016330 2.115358 -1.437198
v 1.263162 2.773539 -1.185358
v 0.981124 2.846777 -1.135004
v 0.889430 2.719863 -1.510117
v 0.184972 3.104150 -0.785593
v -0.359569 2.590176 -2.507385
v -1.708999 2.621860 -3.290792
v -2.672596 1.927912 -3.639459
v -2.903529 1.258025 -3.693789
v -3.629678 1.828977 -3.284127
v -1.886119 0.537494 -3.410266
v -1.862861 1.051683 -3.415888
v -2.731777 0.623205 -3.638294
v -3.187244 0.526286 -3.238278
v -2.539557 0.314275 -2.530252
v -1.877418 0.116417 -1.837813
v -1.267795 0.029487 -1.081108
v -0.807342 -0.027025 -0.394240
v 0.172696 -0.052438 0.609426
vn -0.8518 0.3664 -0.3743
vn -0.6889 0.7244 0.0268
vn -0.8558 -0.5152 -0.0457
vn -0.8530 -0.3854 -0.3518
vn -0.7497 0.6227 0.2241
vn -0.8320 -0.3238 0.4505
vn -0.8834 0.2886 0.3692
vn -0.8754 -0.2355 0.4221
vn -0.9506 0.0938 0.2958
vn -0.8567 -0.4502 0.2518
vn -0.4373 0.8983 0.0419
vn -0.2405 0.9598 0.1450
vn -0.9314 -0.0070 0.3640
vn -0.1030 0.5279 0.8431
vn -0.2321 0.3056 0.9235
vn -0.6424 0.7504 0.1556
vn -0.8787 0.3883 0.2778
vn -0.3135 0.9267 0.2072
vn -0.9041 0.0623 0.4227
vn -0.4666 0.8214 0.3279
vn -0.9041 0.0987 0.4158
vn -0.9176 0.3969 0.0233
vn -0.6148 0.7421 0.2671
vn -0.9883 -0.1430 0.0530
vn -0.8491 0.0383 0.5268
vn -0.0924 -0.9454 0.3124
vn -0.2175 -0.8784 0.4256
vn -0.2978 -0.9023 0.3118
vn 0.0690 -0.9976 0.0103
vn -0.7016 -0.0936 0.7064
vn -0.7356 -0.1087 0.6686
vn -0.0796 -0.7543 0.6517
vn -0.6765 -0.0757 0.7325
vn -0.0639 -0.6070 0.7921
vn -0.3055 0.6016 0.7381
vn 0.4045 -0.1705 0.8985
vn 0.2694 0.4818 0.8338
vn -0.6797 0.4592 0.5719
vn -0.2530 -0.9226 0.2913
vn -0.7303 -0.2321 0.6425
vn -0.1661 -0.9083 0.3839
vn -0.7350 -0.1647 0.6577
vn -0.7241 0.4232 0.5447
vn -0.5673 0.7331 0.3751
vn -0.5050 0.7594 0.4102
vn -0.3299 0.7831 0.5273
vn -0.0382 0.8484 0.5280
vn -0.7697 -0.6160 0.1677
vn -0.7788 -0.6058 0.1626
vn -0.4774 0.8620 0.1703
vn -0.9730 0.0998 0.2082
vn -0.8313 -0.5546 -0.0365
vn -0.4369 0.8989 0.0322
vn -0.8643 0.4704 -0.1780
vn -0.3270 0.9406 -0.0916
vn -0.8162 0.4894 -0.3071
vn -0.3997 0.7465 -0.5319
vn -0.5897 0.2167 -0.7780
vn -0.7843 0.0765 -0.6156
vn -0.8604 0.0498 -0.5071
vn -0.5178 -0.7964 -0.3124
vn -0.3980 -0.9139 -0.0801
vn -0.0625 -0.9841 -0.1660
vn -0.2274 -0.9666 -0.1180
vn -0.4204 -0.9040 -0.0776
vn -0.3222 -0.9436 -0.0766
vn -0.0142 -0.9999 0.0099
vn -0.0469 -0.9761 0.2123
vn 0.4516 -0.2654 0.8518
vn 0.1333 -0.9377 0.3209
vn 0.3739 -0.6805 0.6302
vn 0.5463 -0.6388 0.5418
vn 0.3130 -0.9390 0.1425
vn 0.5606 -0.7879 -0.2549
vn 0.7762 -0.6043 0.1798
vn 0.3276 -0.9401 0.0946
vn 0.8384 -0.4632 0.2874
vn 0.6765 -0.1629 0.7182
vn 0.1455 -0.9709 -0.1902
vn 0.6144 -0.0286 -0.7885
vn 0.5047 -0.7809 -0.3682
vn 0.1347 -0.9624 -0.2361
vn 0.5758 -0.1295 -0.8073
vn 0.6135 -0.0329 -0.7890
vn 0.4896 0.0298 -0.8714
vn 0.0463 -0.9724 -0.2286
vn 0.4063 -0.2241 -0.8858
vn -0.2462 0.9680 -0.0492
vn -0.3037 0.7618 -0.5723
vn -0.1970 0.9802 0.0194
vn -0.2572 0.8157 -0.5182
vn -0.0792 0.9753 -0.2060
vn -0.0523 0.9044 -0.4234
vn -0.5649 0.8163 -0.1204
vn -0.2056 0.9700 0.1294
vn -0.1989 0.9715 0.1290
vn -0.4759 0.8726 -0.1098
vn -0.2795 0.9184 -0.2799
vn -0.0421 0.9891 -0.1408
vn -0.2320 0.9583 0.1668
vn -0.1217 0.9925 0.0133
vn -0.0585 0.8974 0.4373
vn -0.0906 0.9959 -0.0016
vn 0.4257 0.8783 0.2175
vn 0.4314 0.9014 -0.0374
vn 0.3102 0.4611 0.8313
vn 0.6132 0.4958 0.6149
vn 0.8484 0.4757 0.2324
vn 0.9827 -0.0316 -0.1824
vn 0.6018 0.7940 -0.0858
vn 0.8965 -0.1481 -0.4175
vn 0.6980 0.3946 -0.5975
vn 0.1521 0.9146 -0.3746
vn 0.5834 0.3527 -0.7317
vn 0.1733 0.9331 -0.3151
vn 0.6073 0.0394 -0.7935
vn 0.2390 0.8706 -0.4301
vn 0.6551 0.3256 -0.6818
vn 0.6092 0.0308 -0.7924
vn 0.4024 0.3929 -0.8269
vn 0.1951 0.9119 -0.3611
vn 0.5154 0.5171 -0.6833
vn 0.1749 0.9325 -0.3160
vn 0.5130 0.3738 -0.7727
vn 0.3510 0.3808 -0.8554
vn 0.0369 0.3174 -0.9476
vn -0.1279 -0.0668 -0.9895
vn -0.5404 0.2066 -0.8156
vn 0.1135 -0.8039 -0.5838
vn 0.4092 0.0305 -0.9119
vn -0.1397 -0.6247 -0.7683
vn -0.3762 -0.7010 -0.6059
vn -0.0088 -0.9652 -0.2613
vn 0.0392 -0.9761 -0.2137
vn 0.0784 -0.9818 -0.1732
vn 0.1075 -0.9835 -0.1454
vn 0.1427 -0.9832 -0.1139
vt 0.415162 0.567172
vt 0.402319 0.570060
vt 0.430362 0.441978
vt 0.784594 0.572963
vt 0.497627 0.486287
vt 0.744080 0.518697
vt 0.394274 0.568305
vt 0.404019 0.438661
vt 0.807239 0.567889
vt 0.360534 0.530735
vt 0.364772 0.453652
vt 0.842033 0.553857
vt 0.318645 0.516057
vt 0.340618 0.462147
vt 0.863080 0.549133
vt 0.318347 0.526651
vt 0.299436 0.542341
vt 0.306624 0.499919
vt 0.292767 0.528553
vt 0.296736 0.511603
vt 0.288362 0.527385
vt 0.291010 0.511682
vt 0.283044 0.531676
vt 0.286166 0.506893
vt 0.256708 0.523045
vt 0.257613 0.513873
vt 0.484300 0.538022
vt 0.436087 0.572275
vt 0.503349 0.501692
vt 0.492864 0.533351
vt 0.692229 0.624467
vt 0.584278 0.565518
vt 0.664595 0.541783
vt 0.571518 0.558452
vt 0.673180 0.533544
vt 0.719739 0.635852
vt 0.571538 0.587306
vt 0.563377 0.562464
vt 0.591590 0.611153
vt 0.629928 0.547390
vt 0.577423 0.609032
vt 0.593800 0.651824
vt 0.603743 0.556433
vt 0.574433 0.648342
vt 0.593583 0.580181
vt 0.591081 0.695109
vt 0.575402 0.684828
vt 0.539254 0.584268
vt 0.524622 0.495376
vt 0.726938 0.524635
vt 0.522845 0.510691
vt 0.553418 0.526909
vt 0.697767 0.528053
vt 0.549079 0.534478
vt 0.513993 0.554846
vt 0.461125 0.591981
vt 0.485895 0.616373
vt 0.504007 0.636004
vt 0.491775 0.656531
vt 0.291793 0.469005
vt 0.901692 0.546632
vt 0.242904 0.473240
vt 0.937525 0.546945
vt 0.241940 0.525792
vt 0.232718 0.514364
vt 0.979945 0.550526
vt 0.186628 0.499187
vt 0.226286 0.535048
vt 0.219366 0.527616
vt 0.215604 0.547167
vt 0.204616 0.536749
vt 0.199851 0.551661
vt 0.181610 0.548994
vt 0.183782 0.538866
vt 0.185525 0.520925
vt 0.115037 0.540499
vt 0.979769 0.613374
vt 0.934483 0.612376
vt 0.838775 0.598095
vt 0.860445 0.607450
vt 0.817799 0.587962
vt 0.897134 0.610750
vt 0.771670 0.601382
vt 0.745879 0.613543
vt 0.609241 0.658777
vt 0.564738 0.794680
vt 0.666237 0.664263
vt 0.627319 0.671933
vt 0.559243 0.823681
vt 0.651435 0.715235
vt 0.516464 0.869258
vt 0.668797 0.724798
vt 0.373468 0.921542
vt 0.711278 0.779332
vt 0.682549 0.782309
vt 0.413389 0.902663
vt 0.681633 0.759798
vt 0.417146 0.877093
vt 0.460149 0.842520
vt 0.169945 0.801488
vt 0.871960 0.751003
vt 0.180275 0.793794
vt 0.215615 0.844665
vt 0.836801 0.779770
vt 0.144428 0.757912
vt 0.906533 0.732611
vt 0.129724 0.717739
vt 0.153904 0.753868
vt 0.130416 0.705278
vt 0.119290 0.710290
vt 0.942240 0.709878
vt 0.123297 0.702026
vt 0.214097 0.577815
vt 0.202198 0.580952
vt 0.218206 0.604179
vt 0.203716 0.605722
vt 0.237861 0.643947
vt 0.202915 0.631033
vt 0.306647 0.573730
vt 0.251922 0.580569
vt 0.249188 0.555925
vt 0.350314 0.598832
vt 0.261685 0.641220
vt 0.353266 0.674599
vt 0.429379 0.636036
vt 0.363530 0.688250
vt 0.441326 0.727223
vt 0.380867 0.725803
vt 0.433558 0.760373
vt 0.383417 0.747327
vt 0.478114 0.767033
vt 0.447834 0.781098
vt 0.420896 0.822718
vt 0.389667 0.839038
vt 0.349836 0.776277
vt 0.336514 0.821815
vt 0.323972 0.797803
vt 0.336499 0.742199
vt 0.295349 0.777537
vt 0.318193 0.730974
vt 0.262258 0.776547
vt 0.283636 0.758269
vt 0.272917 0.757685
vt 0.242444 0.762920
vt 0.270425 0.753962
vt 0.270611 0.742356
vt 0.255302 0.740475
vt 0.286634 0.705711
vt 0.217675 0.694498
vt 0.191751 0.643047
vt 0.161822 0.611438
vt 0.136772 0.601788
vt 0.166556 0.571811
vt 0.975401 0.687960
vt 0.111850 0.658161
vt 0.132206 0.654158
vt 0.111094 0.607417
vt 0.997559 0.659876
vt 0.110536 0.571671
vt 0.989143 0.636414
vt 0.951478 0.649431
vt 0.914280 0.663272
vt 0.876343 0.674566
vt 0.843517 0.681519
vt 0.790590 0.703160
s 1
usemtl initialShadingGroup
f 1/1/1 2/2/2 3/3/3 4/5/4
f 3/3/3 2/2/2 5/7/5 6/8/6
f 7/10/7 8/11/8 6/8/6 5/7/5
f 9/13/9 10/14/10 8/11/8 7/10/7
f 11/16/11 12/17/12 13/18/13 9/13/9
f 14/19/14 15/20/15 13/18/13 12/17/12
f 15/20/15 14/19/14 16/21/16 17/22/17
f 17/22/17 16/21/16 18/23/18 19/24/19
f 19/24/19 18/23/18 20/25/20 21/26/21
f 11/16/11 9/13/9 7/10/7
f 22/27/22 23/28/23 1/1/1
f 24/29/24 1/1/1 4/5/4
f 22/27/22 1/1/1 24/29/24
f 24/29/24 25/30/25 22/27/22
f 26/31/26 27/33/27 28/35/28 29/36/29
f 28/34/28 27/32/27 30/37/30 31/38/31
f 30/37/30 27/32/27 32/39/32 33/41/33
f 33/41/33 32/39/32 34/42/34 35/44/35
f 35/44/35 34/42/34 36/46/36 37/47/37
f 33/41/33 35/44/35 38/48/38 30/37/30
f 30/37/30 38/48/38 31/38/31
f 39/49/39 40/51/40 24/29/24 4/5/4
f 41/52/41 42/54/42 40/51/40 39/49/39
f 28/34/28 31/38/31 42/54/42 41/52/41
f 31/38/31 38/48/38 43/55/43 42/54/42
f 43/55/43 40/51/40 42/54/42
f 40/51/40 43/55/43 25/30/25 24/29/24
f 43/55/43 22/27/22 25/30/25
f 43/55/43 44/56/44 23/28/23 22/27/22
f 44/56/44 43/55/43 38/48/38 45/57/45
f 35/44/35 46/58/46 45/57/45 38/48/38
f 46/58/46 35/44/35 37/47/37 47/59/47
f 13/18/13 48/60/48 10/14/10 9/13/9
f 13/18/13 15/20/15 17/22/17 19/24/19
f 19/24/19 48/60/48 13/18/13
f 48/60/48 19/24/19 21/26/21 49/62/49
f 21/26/21 20/25/20 50/64/50 51/65/51
f 49/62/49 21/26/21 51/65/51 52/67/52
f 51/65/51 50/64/50 53/68/53 54/69/54
f 54/69/54 53/68/53 55/70/55 56/71/56
f 56/71/56 55/70/55 57/72/57
f 56/71/56 57/72/57 58/73/58 59/74/59
f 56/71/56 59/74/59 60/75/60 54/69/54
f 54/69/54 60/75/60 52/67/52 51/65/51
f 49/63/49 52/66/52 61/77/61 62/78/62
f 63/79/63 8/12/8 10/15/10 64/80/64
f 6/9/6 8/12/8 63/79/63 65/81/65
f 64/80/64 10/15/10 48/61/48 66/82/66
f 66/82/66 48/61/48 49/63/49 62/78/62
f 65/81/65 67/83/67 3/4/3 6/9/6
f 4/6/4 3/4/3 67/83/67 39/50/39
f 39/50/39 67/83/67 68/84/68 41/53/41
f 41/53/41 68/84/68 29/36/29 28/35/28
f 69/85/69 36/45/36 70/87/70 71/88/71
f 27/33/27 26/31/26 70/87/70 32/40/32
f 70/87/70 34/43/34 32/40/32
f 34/43/34 70/87/70 36/45/36
f 72/90/72 71/88/71 70/87/70 73/92/73
f 74/94/74 75/95/75 76/97/76
f 73/92/73 76/97/76 75/95/75 72/90/72
f 77/98/77 78/99/78 72/91/72 75/96/75
f 71/89/71 72/91/72 78/99/78 69/86/69
f 76/97/76 73/92/73 70/87/70 74/94/74
f 74/94/74 70/87/70 26/31/26
f 74/94/74 26/31/26 29/36/29
f 79/100/79 80/102/80 81/103/81
f 82/105/82 83/107/83 84/108/84
f 84/108/84 80/102/80 79/100/79 82/105/82
f 85/109/85 83/107/83 86/110/86
f 87/112/87 85/109/85 86/110/86
f 57/72/57 55/70/55 88/113/88 89/114/89
f 89/114/89 88/113/88 90/115/90 91/116/91
f 92/117/92 93/118/93 91/116/91 90/115/90
f 12/17/12 11/16/11 7/10/7 94/119/94
f 14/19/14 12/17/12 18/23/18 16/21/16
f 94/119/94 95/120/95 12/17/12
f 18/23/18 12/17/12 95/120/95 96/121/96
f 20/25/20 96/121/96 50/64/50
f 96/121/96 20/25/20 18/23/18
f 96/121/96 55/70/55 53/68/53
f 50/64/50 96/121/96 53/68/53
f 96/121/96 88/113/88 55/70/55
f 95/120/95 94/119/94 92/117/92 90/115/90
f 96/121/96 95/120/95 90/115/90 88/113/88
f 94/119/94 7/10/7 5/7/5 97/122/97
f 97/122/97 98/123/98 92/117/92 94/119/94
f 98/123/98 97/122/97 99/124/99
f 2/2/2 99/124/99 97/122/97 5/7/5
f 1/1/1 100/125/100 99/124/99 2/2/2
f 23/28/23 100/125/100 1/1/1
f 44/56/44 100/125/100 23/28/23
f 45/57/45 100/125/100 44/56/44
f 47/59/47 100/125/100 45/57/45 46/58/46
f 100/125/100 101/126/101 99/124/99
f 102/127/102 103/128/103 101/126/101 100/125/100
f 47/59/47 102/127/102 100/125/100
f 103/128/103 102/127/102 104/129/104 105/130/105
f 104/129/104 102/127/102 106/131/106 107/132/107
f 37/47/37 106/131/106 102/127/102 47/59/47
f 36/46/36 69/86/69 106/131/106 37/47/37
f 69/86/69 78/99/78 107/132/107 106/131/106
f 78/99/78 108/133/108 107/132/107
f 108/133/108 78/99/78 77/98/77 109/134/109
f 109/134/109 77/98/77 75/96/75 74/93/74
f 105/130/105 104/129/104 107/132/107 108/133/108
f 105/130/105 108/133/108 109/134/109 110/135/110
f 109/134/109 111/136/111 112/137/112 110/135/110
f 101/126/101 103/128/103 105/130/105 113/138/113
f 113/138/113 105/130/105 110/135/110
f 113/138/113 110/135/110 112/137/112
f 114/139/114 115/140/115 113/138/113 112/137/112
f 101/126/101 113/138/113 115/140/115 99/124/99
f 116/141/116 117/142/117 114/139/114
f 118/143/118 117/142/117 116/141/116
f 118/143/118 116/141/116 119/144/119 120/145/120
f 120/145/120 119/144/119 121/146/121
f 121/146/121 119/144/119 122/147/122
f 120/145/120 121/146/121 117/142/117 118/143/118
f 117/142/117 115/140/115 114/139/114
f 115/140/115 117/142/117 121/146/121 123/148/123
f 123/148/123 98/123/98 99/124/99 115/140/115
f 98/123/98 123/148/123 121/146/121 92/117/92
f 93/118/93 92/117/92 124/149/124 125/150/125
f 122/147/122 124/149/124 92/117/92 121/146/121
f 126/151/126 127/152/127 128/153/128
f 74/93/74 81/103/81 111/136/111 109/134/109
f 114/139/114 112/137/112 111/136/111 81/103/81
f 81/103/81 116/141/116 114/139/114
f 116/141/116 81/103/81 80/102/80 119/144/119
f 80/102/80 84/108/84 124/149/124 122/147/122
f 119/144/119 80/102/80 122/147/122
f 124/149/124 84/108/84 83/107/83
f 85/109/85 124/149/124 83/107/83
f 85/109/85 87/112/87 129/155/129 130/156/130
f 130/156/130 129/155/129 131/157/131 127/152/127
f 130/156/130 125/150/125 124/149/124 85/109/85
f 125/150/125 130/156/130 127/152/127 126/151/126
f 126/151/126 91/116/91 93/118/93 125/150/125
f 128/153/128 89/114/89 91/116/91 126/151/126
f 57/72/57 89/114/89 128/153/128 58/73/58
f 60/75/60 61/76/61 52/67/52
f 61/76/61 60/75/60 59/74/59
f 58/73/58 61/76/61 59/74/59
f 128/153/128 127/152/127 131/157/131 132/159/132
f 128/153/128 132/159/132 61/76/61 58/73/58
f 131/158/131 129/154/129 133/161/133 132/160/132
f 62/78/62 61/77/61 132/160/132 133/161/133
f 62/78/62 133/161/133 134/162/134 66/82/66
f 86/111/86 134/162/134 133/161/133 129/154/129
f 129/155/129 87/112/87 86/110/86
f 86/110/86 83/107/83 82/105/82
f 82/106/82 135/163/135 134/162/134 86/111/86
f 66/82/66 134/162/134 135/163/135 64/80/64
f 64/80/64 135/163/135 136/164/136 63/79/63
f 79/101/79 136/164/136 135/163/135 82/106/82
f 81/104/81 137/165/137 136/164/136 79/101/79
f 137/165/137 81/104/81 74/94/74 29/36/29
f 68/84/68 137/165/137 29/36/29
f 67/83/67 137/165/137 68/84/68
f 63/79/63 136/164/136 137/165/137 67/83/67
f 67/83/67 65/81/65 63/79/63
