# Blender 3.4.1
# www.blender.org
mtllib OTRA FLOR.mtl
o gFlrHibis
v -0.812315 2.251015 1.197353
v -0.492559 2.414652 1.094533
v -0.830130 2.659236 0.431960
v -0.445845 2.744802 -0.153206
v -1.499569 2.312208 0.219693
v -1.499569 2.312208 0.219693
v -1.552494 2.337812 0.779344
v -0.830130 2.659236 0.431960
v -1.263518 2.216875 1.127911
v -0.812315 2.251015 1.197353
v 0.441075 3.010692 0.930750
v 0.189515 3.204027 0.682252
v -0.390272 2.829049 0.464762
v -0.505447 2.721402 -0.157302
v -0.598635 2.461349 0.983355
v -0.598635 2.461349 0.983355
v -0.244539 2.520845 1.265410
v -0.390272 2.829049 0.464762
v 0.139153 2.767202 1.221150
v 0.441075 3.010692 0.930750
v -0.139221 4.011720 0.088823
v -0.492125 3.922200 0.021371
v -0.379817 3.217615 0.237430
v -0.504098 2.670637 -0.126412
v 0.181102 3.212063 0.692500
v 0.181102 3.212063 0.692500
v 0.163006 3.617994 0.784622
v -0.379817 3.217615 0.237430
v 0.108147 3.962736 0.494501
v -0.139221 4.011720 0.088823
v -1.386171 3.658454 -0.413385
v -1.503705 3.407767 -0.137202
v -0.772742 3.262693 -0.010222
v -0.450918 2.666984 -0.094213
v -0.391880 3.873537 -0.076963
v -0.391880 3.873537 -0.076963
v -0.777451 4.124709 -0.035960
v -0.772742 3.262693 -0.010222
v -1.147734 4.051102 -0.265051
v -1.386171 3.658454 -0.413385
v -1.765282 2.482214 0.171952
v -1.547562 2.432072 0.440670
v -1.047811 2.910501 0.091522
v -0.417037 2.715305 -0.107636
v -1.426974 3.345888 -0.333705
v -1.426974 3.345888 -0.333705
v -1.803380 3.321282 0.012920
v -1.047811 2.910501 0.091522
v -1.954512 2.914195 0.098674
v -1.765282 2.482214 0.171952
v -0.563595 2.729891 -0.103753
v -0.515098 2.615224 0.006795
v -0.929068 3.390465 0.736817
v -0.515098 2.615224 0.006795
v -0.428697 2.748454 -0.043065
v -0.929068 3.390465 0.736817
v -0.563595 2.729891 -0.103753
v -0.428697 2.748454 -0.043065
v -0.515098 2.615224 0.006795
v -0.929068 3.390465 0.736817
v -0.428697 2.748454 -0.043065
v -0.563595 2.729891 -0.103753
v 1.350332 1.283583 0.611159
v 1.421484 1.365365 0.267527
v 0.779426 1.760567 0.228876
v 0.444226 1.814743 -0.360575
v 0.263717 1.638327 0.767037
v 0.263717 1.638327 0.767037
v 0.728279 1.605306 1.045187
v 0.779426 1.760567 0.228876
v 1.110669 1.375963 0.969869
v 1.350332 1.283583 0.611159
v 1.771484 1.696398 -0.698698
v 1.505445 1.970347 -0.625234
v 1.013632 1.800395 -0.160263
v 0.412762 1.808860 -0.307702
v 1.295985 1.449401 0.301873
v 1.295985 1.449401 0.301873
v 1.686361 1.378314 0.111167
v 1.013632 1.800395 -0.160263
v 1.850081 1.512841 -0.276372
v 1.771484 1.696398 -0.698698
v 1.051799 2.872703 -0.741845
v 0.839067 2.888804 -0.455876
v 0.909665 2.184177 -0.334285
v 0.428456 1.757970 -0.286756
v 1.513025 1.978458 -0.615167
v 1.513025 1.978458 -0.615167
v 1.675377 2.345381 -0.632620
v 0.909665 2.184177 -0.334285
v 1.483101 2.713462 -0.770456
v 1.051799 2.872703 -0.741845
v 0.065558 2.929417 0.163623
v 0.201110 2.693693 0.425090
v 0.557140 2.357118 -0.114640
v 0.475565 1.736911 -0.317410
v 0.782422 2.830878 -0.573845
v 0.782422 2.830878 -0.573845
v 0.725841 3.155768 -0.274144
v 0.557140 2.357118 -0.114640
v 0.371437 3.211269 -0.044791
v 0.065558 2.929417 0.163623
v 0.159128 1.869124 0.942020
v 0.461378 1.733400 0.880458
v 0.460263 2.090220 0.224143
v 0.487625 1.774586 -0.360413
v 0.048350 2.641732 0.287593
v 0.048350 2.641732 0.287593
v 0.195771 2.671551 0.757990
v 0.460263 2.090220 0.224143
v 0.120414 2.324361 0.994606
v 0.159128 1.869124 0.942020
v 0.438265 1.824896 -0.237273
v 0.525900 1.692957 -0.211005
v 1.165646 2.420892 0.312406
v 0.525900 1.692957 -0.211005
v 0.545957 1.799839 -0.328888
v 1.165646 2.420892 0.312406
v 0.438265 1.824896 -0.237273
v 0.545957 1.799839 -0.328888
v 0.525900 1.692957 -0.211005
v 1.165646 2.420892 0.312406
v 0.545957 1.799839 -0.328888
v 0.438265 1.824896 -0.237273
v -1.522414 1.488595 -0.865281
v -1.228371 0.910605 -0.030462
v -0.799913 1.300018 -0.501069
v -0.013106 0.731357 -0.369196
v -0.502730 1.672314 -1.075321
v -0.502730 1.672314 -1.075321
v -1.522414 1.488595 -0.865281
v -0.799913 1.300018 -0.501069
v -0.380967 2.730598 -0.048930
v -0.485838 2.805611 -0.120736
v 0.108595 0.904610 -0.257192
v -0.562332 2.690623 -0.042269
v -0.100900 0.833051 -0.331712
v -0.562332 2.690623 -0.042269
v -0.485838 2.805611 -0.120736
v -0.100900 0.833051 -0.331712
v 0.071335 0.904610 -0.463232
v 0.445169 1.782812 -0.293712
v 0.111803 1.154079 -0.350465
v 0.530793 1.705330 -0.312465
v 0.108595 0.904610 -0.257192
v 0.111803 1.154079 -0.350465
v 0.445169 1.782812 -0.293712
v 0.071335 0.904610 -0.463232
v 0.515494 1.788980 -0.396115
v 0.530793 1.705330 -0.312465
v 0.108595 0.904610 -0.257192
v 0.515494 1.788980 -0.396115
v 0.071335 0.904610 -0.463232
v 0.071335 0.904610 -0.463232
v 0.108595 0.904610 -0.257192
v 0.014088 -0.224540 -0.516779
v 0.070594 -0.224540 -0.203646
v 0.071335 0.904610 -0.463232
v 0.014088 -0.224540 -0.516779
v -0.100900 0.833051 -0.331712
v -0.198122 -0.224540 -0.316660
v -0.380967 2.730598 -0.048930
v 0.111803 1.154079 -0.350465
v -0.485838 2.805611 -0.120736
v 0.071335 0.904610 -0.463232
v 0.108595 0.904610 -0.257192
v -0.100900 0.833051 -0.331712
v 0.070594 -0.224540 -0.203646
v -0.198122 -0.224540 -0.316660
v 0.530793 1.705330 -0.312465
v 0.515494 1.788980 -0.396115
v 0.445169 1.782812 -0.293712
v -0.380967 2.730598 -0.048930
v 0.108595 0.904610 -0.257192
v 0.111803 1.154079 -0.350465
vn -0.9006 -0.4315 -0.0525
vn 0.7245 -0.2262 0.6511
vn 0.4061 -0.5394 -0.7377
vn 0.1459 0.8077 -0.5713
vn -0.5042 -0.1662 0.8474
vn 0.8135 -0.4930 -0.3086
vn -0.6185 -0.5269 -0.5829
vn -0.2620 0.8074 -0.5287
vn 0.9832 -0.0414 -0.1778
vn 0.9833 -0.0415 -0.1774
vn -0.6851 0.0526 -0.7265
vn 0.6445 0.5964 0.4785
vn -0.2847 0.8431 0.4563
vn -0.1782 0.8902 0.4194
vn -0.1289 0.9849 0.1158
vn -0.1600 0.9863 0.0392
vn -0.4190 0.8965 -0.1441
vn -0.4379 0.8952 -0.0824
vn -0.3007 0.9254 0.2308
vn -0.2822 0.9253 0.2533
vn -0.1562 0.8747 0.4588
vn -0.1381 0.8725 0.4686
vn -0.5152 0.3405 0.7865
vn -0.5609 0.4734 0.6791
vn -0.7065 0.7040 0.0731
vn -0.6858 0.7278 0.0010
vn -0.8311 0.5530 0.0582
vn -0.4467 0.8047 0.3911
vn -0.4582 0.7984 0.3907
vn -0.4302 0.8222 0.3727
vn -0.4179 0.8339 0.3607
vn -0.3760 0.8644 0.3339
vn -0.2424 0.2489 0.9377
vn -0.4239 0.2031 0.8827
vn -0.7670 -0.1555 0.6225
vn -0.7852 -0.2093 0.5828
vn -0.5926 -0.3484 0.7262
vn -0.6185 -0.2000 0.7599
vn -0.7471 0.1190 0.6540
vn -0.7606 0.1663 0.6275
vn -0.7826 0.3306 0.5274
vn -0.7858 0.3353 0.5197
vn 0.0279 0.7342 0.6783
vn -0.0288 0.5724 0.8195
vn -0.0056 -0.0547 0.9985
vn 0.0122 -0.1331 0.9910
vn 0.2102 -0.0243 0.9774
vn 0.1252 0.0303 0.9917
vn -0.2756 0.0272 0.9609
vn -0.3232 0.0231 0.9460
vn -0.5361 0.0178 0.8440
vn -0.5434 0.0129 0.8394
vn -0.4103 0.7770 0.4774
vn -0.2548 0.7294 0.6349
vn 0.3344 0.6024 0.7248
vn 0.4025 0.5694 0.7168
vn 0.3922 0.7944 0.4637
vn 0.3827 0.7942 0.4720
vn 0.1785 0.4914 0.8525
vn 0.1650 0.4586 0.8732
vn 0.0085 0.1874 0.9822
vn 0.0085 0.1708 0.9853
vn 0.4876 0.8212 0.2964
vn 0.5081 0.8428 0.1777
vn 0.2796 0.9600 -0.0167
vn 0.1993 0.9797 -0.0233
vn -0.0873 0.9862 0.1403
vn -0.0405 0.9820 0.1842
vn 0.2995 0.9337 0.1963
vn 0.3269 0.9257 0.1900
vn 0.5480 0.8171 0.1791
vn 0.5633 0.8090 0.1680
vn 0.5729 0.3587 0.7370
vn 0.4902 0.5118 0.7055
vn -0.0525 0.8502 0.5239
vn -0.1029 0.8768 0.4698
vn -0.1502 0.7410 0.6545
vn 0.3561 0.8360 0.4174
vn 0.3499 0.8331 0.4283
vn 0.3506 0.8509 0.3913
vn 0.3475 0.8603 0.3729
vn 0.3474 0.8819 0.3187
vn 0.7941 0.1798 0.5806
vn 0.6625 0.1913 0.7242
vn 0.2122 -0.0263 0.9769
vn 0.1573 -0.0677 0.9852
vn 0.3290 -0.2705 0.9048
vn 0.3831 -0.1260 0.9151
vn 0.3118 0.2265 0.9227
vn 0.2939 0.2788 0.9143
vn 0.2342 0.4544 0.8594
vn 0.2271 0.4609 0.8579
vn 0.7837 0.6053 0.1395
vn 0.8490 0.4474 0.2811
vn 0.8719 -0.1809 0.4551
vn 0.8542 -0.2597 0.4506
vn 0.9457 -0.2064 0.2510
vn 0.9373 -0.1337 0.3219
vn 0.7501 -0.0265 0.6608
vn 0.7171 -0.0158 0.6967
vn 0.5407 0.0489 0.8398
vn 0.5327 0.0467 0.8450
vn 0.4413 0.7887 0.4280
vn 0.6317 0.6815 0.3694
vn 0.9159 0.3923 -0.0849
vn 0.9282 0.3439 -0.1422
vn 0.7517 0.5943 -0.2857
vn 0.7550 0.5955 -0.2744
vn 0.9418 0.3107 0.1283
vn 0.9473 0.2803 0.1553
vn 0.9192 0.0485 0.3907
vn 0.9181 0.0324 0.3951
vn -0.0861 0.8047 0.5874
vn 0.1057 0.7167 0.6893
vn 0.2133 0.7022 0.6793
vn 0.3399 0.6318 0.6966
vn 0.3806 0.6735 0.6336
vn -0.0443 0.8486 0.5272
vn -0.6647 -0.2582 0.7011
vn 0.0443 -0.0577 0.9973
vn -0.2455 -0.2036 0.9478
vn 0.5703 0.1164 0.8131
vn -0.2625 -0.2119 0.9414
vn -0.6751 -0.0530 -0.7358
vn -0.6674 -0.0508 -0.7430
vn -0.6019 -0.0321 -0.7979
vn -0.5984 -0.0311 -0.8006
vn 0.0915 -0.1376 0.9863
vn -0.4552 0.2879 0.8425
vn 0.0302 -0.0916 0.9953
vn -0.4844 0.3118 0.8174
vn -0.6426 0.3997 -0.6537
vn -0.7526 0.4185 -0.5083
vn -0.6770 0.4066 -0.6134
vn -0.7599 0.4194 -0.4966
vn 0.7220 -0.4187 -0.5508
vn 0.8814 -0.4346 -0.1850
vn 0.7670 -0.4280 -0.4781
vn 0.8869 -0.4333 -0.1604
vn -0.6233 0.0685 -0.7790
vn -0.6775 0.0547 -0.7335
vn -0.6321 0.0663 -0.7720
vn 0.6841 0.3375 -0.6466
vn 0.4957 0.2931 -0.8175
vn 0.6705 0.3347 -0.6621
vn 0.4904 0.2917 -0.8213
vn -0.3516 0.0561 0.9345
vn -0.3566 0.0551 0.9326
vn -0.3826 0.0497 0.9226
vn -0.3872 0.0487 0.9207
vn 0.8536 0.1728 0.4915
vt 0.273438 0.998047
vt 0.250000 0.335938
vt 0.007812 0.335938
vt 0.015625 0.015625
vt 0.250000 0.335938
vt 0.250000 0.335938
vt 0.273438 0.998047
vt 0.007812 0.335938
vt 0.054688 0.998047
vt 0.273438 0.998047
vt 0.273438 0.998047
vt 0.250000 0.335938
vt 0.007812 0.335938
vt 0.015625 0.015625
vt 0.250000 0.335938
vt 0.250000 0.335938
vt 0.273438 0.998047
vt 0.007812 0.335938
vt 0.054688 0.998047
vt 0.273438 0.998047
vt 0.273438 0.998047
vt 0.250000 0.335938
vt 0.007812 0.335938
vt 0.015625 0.015625
vt 0.250000 0.335938
vt 0.250000 0.335938
vt 0.273438 0.998047
vt 0.007812 0.335938
vt 0.054688 0.998047
vt 0.273438 0.998047
vt 0.273438 0.998047
vt 0.250000 0.335938
vt 0.007812 0.335938
vt 0.015625 0.015625
vt 0.250000 0.335938
vt 0.250000 0.335938
vt 0.273438 0.998047
vt 0.007812 0.335938
vt 0.054688 0.998047
vt 0.273438 0.998047
vt 0.273438 0.998047
vt 0.250000 0.335938
vt 0.007812 0.335938
vt 0.015625 0.015625
vt 0.250000 0.335938
vt 0.250000 0.335938
vt 0.273438 0.998047
vt 0.007812 0.335938
vt 0.054688 0.998047
vt 0.273438 0.998047
vt 0.701172 0.998047
vt 0.701172 0.998047
vt 0.701172 0.998047
vt 0.701172 0.998047
vt 0.701172 0.998047
vt 0.701172 0.998047
vt 0.701172 0.998047
vt 0.701172 0.998047
vt 0.701172 0.998047
vt 0.701172 0.998047
vt 0.701172 0.998047
vt 0.701172 0.998047
vt 0.273438 0.998047
vt 0.250000 0.335938
vt 0.007812 0.335938
vt 0.015625 0.015625
vt 0.250000 0.335938
vt 0.250000 0.335938
vt 0.273438 0.998047
vt 0.007812 0.335938
vt 0.054688 0.998047
vt 0.273438 0.998047
vt 0.273438 0.998047
vt 0.250000 0.335938
vt 0.007812 0.335938
vt 0.015625 0.015625
vt 0.250000 0.335938
vt 0.250000 0.335938
vt 0.273438 0.998047
vt 0.007812 0.335938
vt 0.054688 0.998047
vt 0.273438 0.998047
vt 0.273438 0.998047
vt 0.250000 0.335938
vt 0.007812 0.335938
vt 0.015625 0.015625
vt 0.250000 0.335938
vt 0.250000 0.335938
vt 0.273438 0.998047
vt 0.007812 0.335938
vt 0.054688 0.998047
vt 0.273438 0.998047
vt 0.273438 0.998047
vt 0.250000 0.335938
vt 0.007812 0.335938
vt 0.015625 0.015625
vt 0.250000 0.335938
vt 0.250000 0.335938
vt 0.273438 0.998047
vt 0.007812 0.335938
vt 0.054688 0.998047
vt 0.273438 0.998047
vt 0.273438 0.998047
vt 0.250000 0.335938
vt 0.007812 0.335938
vt 0.015625 0.015625
vt 0.250000 0.335938
vt 0.250000 0.335938
vt 0.273438 0.998047
vt 0.007812 0.335938
vt 0.054688 0.998047
vt 0.273438 0.998047
vt 0.701172 0.998047
vt 0.701172 0.998047
vt 0.701172 0.998047
vt 0.701172 0.998047
vt 0.701172 0.998047
vt 0.701172 0.998047
vt 0.701172 0.998047
vt 0.701172 0.998047
vt 0.701172 0.998047
vt 0.701172 0.998047
vt 0.701172 0.998047
vt 0.701172 0.998047
vt 0.693359 0.000000
vt 0.964844 0.761719
vt 0.695312 0.318359
vt 0.697266 1.000000
vt 0.453125 0.767578
vt 0.453125 0.767578
vt 0.693359 0.000000
vt 0.695312 0.318359
vt 0.406250 0.951172
vt 0.361328 1.000000
vt 0.404297 0.044922
vt 0.330078 0.925781
vt 0.314453 0.000000
vt 0.330078 0.925781
vt 0.361328 1.000000
vt 0.314453 0.000000
vt 0.388672 0.044922
vt 0.283203 1.058594
vt 0.283203 0.318359
vt 0.406250 1.048828
vt 0.431641 0.142578
vt 0.283203 0.318359
vt 0.283203 1.058594
vt 0.417969 0.123047
vt 0.351562 1.099609
vt 0.406250 1.048828
vt 0.431641 0.142578
vt 0.351562 1.099609
vt 0.417969 0.123047
vt 0.447266 0.500000
vt 0.384766 0.500000
vt 0.447266 0.000000
vt 0.384766 0.000000
vt 0.437500 2.451172
vt 0.437500 2.951172
vt 0.322266 2.451172
vt 0.322266 2.947266
vt 0.406250 0.951172
vt 0.406250 0.205078
vt 0.361328 1.000000
vt 0.388672 0.044922
vt 0.384766 0.500000
vt 0.291016 0.500000
vt 0.384766 0.000000
vt 0.291016 0.000000
vt 0.384766 0.500000
vt 0.447266 0.500000
vt 0.294922 1.000000
vt 0.406250 0.951172
vt 0.404297 0.044922
vt 0.406250 0.205078
s 0
usemtl Fall.003
f 51/51/1 52/52/1 53/53/1
f 54/54/2 55/55/2 56/56/2
f 57/57/3 58/58/3 59/59/3
f 60/60/4 61/61/4 62/62/4
f 113/113/5 114/114/5 115/115/5
f 116/116/6 117/117/6 118/118/6
f 119/119/7 120/120/7 121/121/7
f 122/122/8 123/123/8 124/124/8
f 154/154/9 155/155/9 156/156/9
f 155/155/10 157/157/10 156/156/10
f 159/159/11 161/161/11 160/160/11
f 170/170/12 171/171/12 172/172/12
s 1
f 1/1/13 2/2/14 3/3/15
f 2/2/14 4/4/16 3/3/15
f 3/3/15 4/4/16 5/5/17
f 6/6/18 7/7/19 8/8/20
f 7/7/19 9/9/21 8/8/20
f 8/8/20 9/9/21 10/10/22
f 11/11/23 12/12/24 13/13/25
f 12/12/24 14/14/26 13/13/25
f 13/13/25 14/14/26 15/15/27
f 16/16/28 17/17/29 18/18/30
f 17/17/29 19/19/31 18/18/30
f 18/18/30 19/19/31 20/20/32
f 21/21/33 22/22/34 23/23/35
f 22/22/34 24/24/36 23/23/35
f 23/23/35 24/24/36 25/25/37
f 26/26/38 27/27/39 28/28/40
f 27/27/39 29/29/41 28/28/40
f 28/28/40 29/29/41 30/30/42
f 31/31/43 32/32/44 33/33/45
f 32/32/44 34/34/46 33/33/45
f 33/33/45 34/34/46 35/35/47
f 36/36/48 37/37/49 38/38/50
f 37/37/49 39/39/51 38/38/50
f 38/38/50 39/39/51 40/40/52
f 41/41/53 42/42/54 43/43/55
f 42/42/54 44/44/56 43/43/55
f 43/43/55 44/44/56 45/45/57
f 46/46/58 47/47/59 48/48/60
f 47/47/59 49/49/61 48/48/60
f 48/48/60 49/49/61 50/50/62
f 63/63/63 64/64/64 65/65/65
f 64/64/64 66/66/66 65/65/65
f 65/65/65 66/66/66 67/67/67
f 68/68/68 69/69/69 70/70/70
f 69/69/69 71/71/71 70/70/70
f 70/70/70 71/71/71 72/72/72
f 73/73/73 74/74/74 75/75/75
f 74/74/74 76/76/76 75/75/75
f 75/75/75 76/76/76 77/77/77
f 78/78/78 79/79/79 80/80/80
f 79/79/79 81/81/81 80/80/80
f 80/80/80 81/81/81 82/82/82
f 83/83/83 84/84/84 85/85/85
f 84/84/84 86/86/86 85/85/85
f 85/85/85 86/86/86 87/87/87
f 88/88/88 89/89/89 90/90/90
f 89/89/89 91/91/91 90/90/90
f 90/90/90 91/91/91 92/92/92
f 93/93/93 94/94/94 95/95/95
f 94/94/94 96/96/96 95/95/95
f 95/95/95 96/96/96 97/97/97
f 98/98/98 99/99/99 100/100/100
f 99/99/99 101/101/101 100/100/100
f 100/100/100 101/101/101 102/102/102
f 103/103/103 104/104/104 105/105/105
f 104/104/104 106/106/106 105/105/105
f 105/105/105 106/106/106 107/107/107
f 108/108/108 109/109/109 110/110/110
f 109/109/109 111/111/111 110/110/110
f 110/110/110 111/111/111 112/112/112
f 125/125/113 126/126/114 127/127/115
f 126/126/114 128/128/116 127/127/115
f 127/127/115 128/128/116 129/129/117
f 130/130/118 131/131/118 132/132/118
f 133/133/119 134/134/120 135/135/121
f 134/134/120 136/136/122 135/135/121
f 135/135/121 136/136/122 137/137/123
f 138/138/124 139/139/125 140/140/126
f 139/139/125 141/141/127 140/140/126
f 142/142/128 143/143/129 144/144/130
f 143/143/129 145/145/131 144/144/130
f 146/146/132 147/147/133 148/148/134
f 147/147/133 149/149/135 148/148/134
f 150/150/136 151/151/137 152/152/138
f 151/151/137 153/153/139 152/152/138
f 158/158/140 159/159/141 160/160/142
f 162/162/143 163/163/144 164/164/145
f 163/163/144 165/165/146 164/164/145
f 166/166/147 167/167/148 168/168/149
f 167/167/148 169/169/150 168/168/149
f 173/173/151 174/174/151 175/175/151
